<svg xmlns="http://www.w3.org/2000/svg" width="112" height="112" viewBox="0 0 112 112" fill="none"><path d="M85.1065 60.4865C85.3026 54.732 82.6559 49.2751 78.0488 45.9017C73.4417 42.4292 67.4622 41.5362 62.0709 43.4213C60.9927 43.8182 60.4045 44.2151 60.2085 44.8104C60.1105 45.2072 60.1105 45.6041 60.3065 46.001C60.9927 47.39 62.0709 46.9931 62.8551 46.6955L63.1492 46.5963C68.6385 44.9096 73.4417 45.9017 77.4607 49.7712C80.3034 52.45 81.8717 56.0218 81.8717 59.8912C81.8717 63.8598 80.3034 67.6301 77.3626 70.5073C75.4022 72.4916 74.1279 74.476 73.6377 76.6587C73.3437 78.0477 73.3437 79.4368 73.3437 80.8258C73.3437 81.4211 73.3437 82.0164 73.3437 82.7109C73.1476 88.1678 71.5792 93.1286 68.5405 97.4941C67.6583 98.7839 66.7761 99.6768 65.8939 100.272C65.5998 100.471 65.4037 100.57 65.3057 100.471C65.2077 100.471 65.1097 100.272 65.0117 99.9745C64.6196 98.9823 64.4235 97.9902 64.1294 96.6011C63.3452 91.2435 63.2472 85.6874 63.2472 80.5281C63.2472 78.5438 62.463 76.6587 61.0907 75.2697C59.7184 73.8807 57.8559 73.0869 55.8954 73.1862C51.8765 73.1862 48.7397 76.5595 48.7397 80.7266V82.6117C48.7397 85.8858 48.8377 89.2592 48.5437 92.6325V93.0294C48.3476 95.3113 48.1516 97.6925 47.2693 99.8753C47.1713 100.272 46.9753 100.471 46.7792 100.471C46.5832 100.471 46.3871 100.371 46.0931 100.173C45.2108 99.4784 44.3286 98.5855 43.4464 97.3949C40.0156 92.4341 38.3492 86.7788 38.6433 80.5281C38.8393 76.5595 37.467 73.1862 34.4282 70.2097C30.8014 66.6379 29.429 62.074 30.5073 57.0139C31.3895 52.8469 33.8401 49.4735 37.3689 47.4892C40.8978 45.5049 45.1128 45.108 49.1318 46.497C49.916 46.7947 51.1903 47.1915 51.7784 45.8025C51.9745 45.4057 51.9745 45.0088 51.8765 44.7111C51.6804 44.2151 51.0923 43.8182 50.2101 43.4213C47.4654 42.4292 44.4267 42.1315 41.1919 42.7268C36.8788 43.4213 32.8599 46.001 30.2132 49.9696C27.4685 53.839 26.3903 58.6014 27.2725 62.9669C28.0567 67.0348 29.8211 70.4081 32.7618 73.1862C34.6243 74.972 35.5065 77.0556 35.5065 79.6352C35.5065 81.4211 35.5065 83.4054 35.7025 85.2905C36.3887 91.3427 38.4472 96.4027 41.878 100.57C42.9563 101.959 44.1326 102.852 45.4069 103.447C45.995 103.745 46.5832 103.844 47.0733 103.844C48.1516 103.844 49.1318 103.249 49.916 102.058C50.5041 101.066 50.8962 99.8753 51.0923 98.8831C51.9745 95.1129 52.0725 91.1443 52.1705 87.3741V86.5803C52.1705 85.985 52.1705 85.4889 52.1705 84.8937C52.1705 83.7031 52.1705 82.4132 52.1705 81.1234C52.0725 78.5438 53.7389 76.6587 55.9935 76.5595C57.1698 76.5595 58.248 76.8571 59.0322 77.6509C59.8164 78.4446 60.3065 79.6352 60.3065 80.925C60.3065 84.4968 60.3065 88.7631 60.6986 93.0294C60.8946 95.5098 61.2868 98.4862 62.365 101.165C62.9532 102.653 63.7373 103.546 64.8156 103.844C65.7958 104.142 66.9721 103.844 68.2464 102.951C70.1089 101.661 71.3832 99.8753 72.2654 98.387C75.5982 93.1286 77.1666 86.9772 76.9706 80.2305C76.8725 77.3532 77.8528 75.0713 80.0093 72.9877C83.146 69.5152 85.0085 65.3481 85.1065 60.4865Z" fill="#52525B"></path><path d="M31.7819 39.9488C37.6633 39.9488 43.5447 39.9488 49.3281 39.9488C51.5827 39.9488 53.8372 39.9488 56.0918 39.9488H62.8554C68.7369 39.9488 74.6183 39.9488 80.5977 39.9488C83.1463 39.9488 85.0088 39.0559 86.4791 37.0715C90.3021 32.0115 91.7724 26.4554 90.6942 20.5025C89.2238 12.5652 84.6167 6.90987 77.1669 4.33025C69.7171 1.65142 62.7574 3.04044 56.5819 8.29889C56.0918 8.69576 55.9938 8.69576 55.5036 8.29889C50.5044 3.93339 44.721 2.34593 38.3495 3.43731C31.1938 4.72712 25.3123 9.48949 22.6657 16.3354C20.019 23.1813 20.9993 30.8209 25.4104 36.6747C27.0768 38.8574 29.0372 39.9488 31.7819 39.9488ZM59.3266 22.0899V22.4868C59.4246 22.9829 59.4246 23.479 59.4246 23.975C59.4246 25.0664 60.1108 25.6617 60.993 25.6617C61.4831 25.6617 61.8752 25.5625 62.1693 25.2648C62.4633 24.9672 62.6594 24.4711 62.6594 23.7766C62.6594 20.8001 61.9732 18.0221 60.7969 15.3432C60.3068 14.2519 59.6206 12.962 58.7384 11.7715C58.3463 11.3746 58.3463 11.1762 58.9345 10.7793C65.7961 4.52868 76.8728 5.02476 83.1463 12.0691C89.0278 18.6174 89.4199 27.9437 84.2246 34.988C83.2444 36.2778 82.0681 36.8731 80.4997 36.8731C74.5203 36.8731 68.5408 36.8731 62.5614 36.8731H56.0918H49.7202C43.8388 36.8731 37.9574 36.8731 32.076 36.8731C30.3115 36.8731 29.1353 36.2778 28.057 34.8888C24.4301 29.928 23.5479 23.479 25.7044 17.7244C27.959 11.9699 32.8602 7.90203 38.8396 6.71144C39.8198 6.51301 40.8981 6.41379 41.8783 6.41379C45.6032 6.41379 49.3281 7.60438 52.3669 9.98557C56.2878 12.8628 58.8365 17.3276 59.3266 22.0899Z" fill="#52525B"></path><path d="M95.1052 100.867C90.5961 96.7004 85.0087 94.8153 78.5392 95.1129C76.6767 95.2121 75.2063 96.1051 74.2261 97.891C73.4419 99.28 72.7558 100.57 71.8735 101.76C70.6973 103.348 69.2269 105.035 67.1684 106.126C64.9139 107.217 62.8554 106.622 61.483 104.34C60.9929 103.447 60.6988 102.356 60.4048 101.364L60.3067 100.867C59.7186 98.7839 58.1502 97.4941 56.0917 97.4941C54.1312 97.4941 52.5629 98.7839 51.8767 100.867L51.7787 101.264C51.3866 102.455 51.0925 103.646 50.5044 104.638C49.3281 106.523 47.5636 107.118 45.4071 106.324C44.721 106.027 44.1328 105.729 43.4466 105.233C41.3882 103.646 39.6237 101.364 38.0553 98.2878C36.9771 96.2043 35.2127 95.1129 32.9581 95.1129C32.566 95.1129 32.2719 95.1129 31.8798 95.1129H31.3897C25.8024 95.3114 20.9012 97.2957 16.8822 100.967C16.4901 101.364 16 101.86 16 102.554C16 102.951 16.196 103.348 16.4901 103.646C17.5684 104.836 18.7447 103.745 19.1368 103.348C22.9597 99.8753 27.4688 98.1886 33.1542 98.3871C34.0364 98.3871 34.6245 98.7839 35.0166 99.5777C35.8008 101.066 36.683 102.554 37.5652 103.844C39.5257 106.523 41.3882 108.11 43.5447 109.202C44.721 109.698 45.8972 109.995 46.9755 109.995C49.4261 109.995 51.6806 108.706 53.151 106.225C53.8372 105.035 54.4253 103.646 54.8174 101.959C55.0135 100.967 55.5036 100.867 55.9937 100.867C56.3858 100.867 56.8759 100.967 57.072 101.959C57.4641 103.646 57.9542 105.035 58.7384 106.225C60.5028 109.102 63.0514 110.392 66.2862 109.896C67.7565 109.698 69.0309 109.102 70.5992 107.912C73.0498 106.027 75.0103 103.447 76.8727 99.8753C77.3629 98.8831 77.951 98.4863 78.8332 98.3871C84.4206 98.1886 89.0277 99.7761 92.8506 103.348C93.2427 103.745 94.419 104.836 95.4973 103.646C95.7913 103.249 95.9874 102.951 95.9874 102.554C96.0854 101.86 95.5953 101.264 95.1052 100.867Z" fill="#52525B"></path><path d="M54.4253 65.3483C54.1312 64.9514 53.7391 64.5546 53.445 64.1577C53.0529 63.7609 52.6608 63.5624 52.1707 63.5624C51.7786 63.5624 51.3865 63.7609 50.9944 64.0585C50.3083 64.753 50.3083 65.646 51.0925 66.4397L54.8174 70.2099C55.2095 70.6068 55.6016 70.8052 55.9937 70.8052C56.3857 70.8052 56.7778 70.6068 57.1699 70.3091C58.4442 69.1185 59.7186 67.7295 61.0909 66.3405C61.483 65.9436 61.581 65.5467 61.581 65.1499C61.581 64.753 61.385 64.3561 60.9929 64.0585C60.3067 63.364 59.4245 63.4632 58.7383 64.1577C58.3462 64.5546 58.0521 64.9514 57.6601 65.3483L57.562 65.4475C57.562 65.3483 57.562 65.1499 57.562 65.0507C57.562 64.9514 57.562 64.8522 57.562 64.753C57.562 63.0663 57.562 61.3797 57.562 59.693V57.7087C57.562 57.5102 57.562 57.2126 57.562 57.0142C57.562 56.4189 57.366 55.9228 57.0719 55.6251C56.7778 55.3275 56.3857 55.2283 55.8956 55.2283C54.9154 55.2283 54.3272 55.9228 54.3272 57.1134C54.3272 59.2961 54.3272 61.3797 54.3272 63.5624V65.5467L54.4253 65.3483Z" fill="#52525B"></path><path d="M75.7945 65.249C75.9905 65.6458 76.2846 65.9435 76.6767 66.1419C76.9707 66.2411 77.1668 66.3404 77.3628 66.3404C78.049 66.3404 78.5391 65.8443 78.9312 64.9513C79.6174 63.3639 79.9115 61.7764 79.9115 60.2882C79.9115 54.4344 76.0885 49.4736 70.6972 48.1838C70.2071 48.0846 68.7368 47.6877 68.3447 49.176C68.1486 49.8705 68.2466 50.2674 68.4427 50.565C68.7367 50.9619 69.1288 51.2595 69.815 51.3587C72.2656 51.8548 74.4221 53.5415 75.6964 55.9227C76.9707 58.4031 77.0688 61.1811 75.9905 63.7607C75.6964 64.2568 75.5984 64.7529 75.7945 65.249Z" fill="#52525B"></path><path d="M55.9937 53.5415H56.0917C56.5818 53.5415 56.8759 53.4422 57.17 53.1446C57.464 52.847 57.6601 52.4501 57.6601 51.8548C57.6601 51.2595 57.6601 50.6642 57.5621 49.9697C57.464 49.0767 56.8759 48.5807 55.8956 48.6799C55.0134 48.6799 54.4253 49.2752 54.4253 50.1681C54.4253 50.3666 54.4253 50.565 54.4253 50.7634V51.8548C54.5233 52.847 55.0134 53.4422 55.9937 53.5415Z" fill="#52525B"></path><path d="M55.9935 46.8941C55.9935 46.8941 56.0916 46.8941 55.9935 46.8941C56.4837 46.8941 56.8758 46.7948 57.1698 46.4972C57.4639 46.1995 57.6599 45.7035 57.6599 45.2074C57.6599 44.7113 57.6599 44.116 57.6599 43.6199C57.5619 42.6278 56.9738 42.0325 55.9935 42.0325C55.1113 42.0325 54.5232 42.6278 54.5232 43.6199C54.5232 43.8184 54.5232 43.9176 54.5232 44.116V44.7113C54.5232 44.9097 54.5232 45.009 54.5232 45.2074C54.4252 46.1995 55.0133 46.8941 55.9935 46.8941Z" fill="#52525B"></path><path d="M72.6578 13.0614C75.9906 13.9543 78.6373 16.0379 80.1076 18.8159C81.578 21.6932 81.676 25.0665 80.3037 28.4399C80.1076 28.9359 79.6175 30.325 81.0879 30.9203C81.3819 31.0195 81.578 31.1187 81.774 31.1187C81.9701 31.1187 82.0681 31.1187 82.2641 31.0195C82.8523 30.8211 83.1464 30.2258 83.3424 29.7297C84.1266 27.8446 84.5187 25.9595 84.5187 23.8759C84.5187 17.1292 79.7155 11.0771 73.344 9.78725C72.8539 9.68803 71.3835 9.39039 70.9914 10.8786C70.7954 12.5653 72.2657 12.9622 72.6578 13.0614Z" fill="#52525B"></path></svg>