<svg xmlns="http://www.w3.org/2000/svg" width="48" height="48" viewBox="0 0 48 48" fill="none"><path d="M7.382 12.584C10.188 9.542 14.434 8 20 8H22V13.638L20.392 13.96C17.652 14.508 15.746 15.586 14.726 17.168C14.1938 18.0203 13.8919 18.9961 13.85 20H20C20.5304 20 21.0391 20.2107 21.4142 20.5858C21.7893 20.9609 22 21.4696 22 22V36C22 38.206 20.206 40 18 40H6C5.46957 40 4.96086 39.7893 4.58579 39.4142C4.21072 39.0391 4 38.5304 4 38V28L4.006 22.162C3.988 21.94 3.608 16.68 7.382 12.584ZM40 40H28C27.4696 40 26.9609 39.7893 26.5858 39.4142C26.2107 39.0391 26 38.5304 26 38V28L26.006 22.162C25.988 21.94 25.608 16.68 29.382 12.584C32.188 9.542 36.434 8 42 8H44V13.638L42.392 13.96C39.652 14.508 37.746 15.586 36.726 17.168C36.1938 18.0203 35.8919 18.9961 35.85 20H42C42.5304 20 43.0391 20.2107 43.4142 20.5858C43.7893 20.9609 44 21.4696 44 22V36C44 38.206 42.206 40 40 40Z" fill="white" fill-opacity="0.25"></path></svg>